<svg width="37" height="36" viewBox="0 0 37 36" fill="none" xmlns="http://www.w3.org/2000/svg">
<g clip-path="url(#clip0_61_1182)">
<path d="M36.5 18C36.5 8.05896 28.441 0 18.5 0C8.55896 0 0.5 8.05896 0.5 18C0.5 26.4413 6.31184 33.5246 14.1519 35.4701V23.5008H10.4403V18H14.1519V15.6298C14.1519 9.50328 16.9246 6.6636 22.9395 6.6636C24.08 6.6636 26.0478 6.88752 26.8527 7.11072V12.0967C26.4279 12.0521 25.6899 12.0298 24.7734 12.0298C21.8221 12.0298 20.6816 13.1479 20.6816 16.0546V18H26.5611L25.551 23.5008H20.6816V35.8682C29.5945 34.7918 36.5007 27.203 36.5007 18H36.5Z" fill="#0866FF"/>
<path d="M25.5502 23.5013L26.5604 18.0005H20.6809V16.055C20.6809 13.1484 21.8214 12.0302 24.7726 12.0302C25.6892 12.0302 26.4272 12.0525 26.852 12.0972V7.11118C26.047 6.88726 24.0793 6.66406 22.9388 6.66406C16.9239 6.66406 14.1512 9.50374 14.1512 15.6302V18.0005H10.4396V23.5013H14.1512V35.4705C15.5437 35.8161 17.0002 36.0005 18.4993 36.0005C19.2373 36.0005 19.9652 35.9551 20.6802 35.8687V23.5013H25.5495H25.5502Z" fill="white"/>
</g>
<defs>
<clipPath id="clip0_61_1182">
<rect width="36" height="36" fill="white" transform="translate(0.5)"/>
</clipPath>
</defs>
</svg>
