<svg width="37" height="35" viewBox="0 0 37 35" fill="none" xmlns="http://www.w3.org/2000/svg">
<path d="M18.5059 0C10.991 0 8.79324 0.00744432 8.36603 0.0414755C6.82386 0.164573 5.86422 0.397739 4.81876 0.897572C4.01306 1.28175 3.37764 1.72708 2.75053 2.35134C1.60844 3.48979 0.91626 4.89039 0.665692 6.55526C0.543869 7.3635 0.508429 7.52834 0.501231 11.6567C0.498462 13.0329 0.501231 14.844 0.501231 17.2732C0.501231 24.4836 0.509537 26.5919 0.54553 27.0014C0.670122 28.4424 0.905462 29.349 1.40383 30.3407C2.35627 32.239 4.17531 33.664 6.31829 34.1958C7.06031 34.3792 7.87984 34.4802 8.93195 34.5281C9.37772 34.5467 13.9212 34.56 18.4674 34.56C23.0136 34.56 27.5598 34.5547 27.9945 34.5334C29.2128 34.4784 29.9202 34.3872 30.7023 34.1931C31.7649 33.9314 32.7552 33.4502 33.604 32.7829C34.4528 32.1157 35.1398 31.2786 35.6168 30.33C36.1055 29.3623 36.3533 28.4211 36.4654 27.0553C36.4898 26.7575 36.5 22.0099 36.5 17.2687C36.5 12.5267 36.4889 7.78782 36.4646 7.49005C36.351 6.10222 36.1032 5.16902 35.5988 4.18264C35.1849 3.3752 34.7253 2.77221 34.058 2.15566C32.8675 1.06347 31.4111 0.398803 29.6754 0.158458C28.8345 0.0417414 28.667 0.00717845 24.3645 0H18.5059Z" fill="url(#paint0_radial_61_1177)"/>
<path d="M18.5059 0C10.991 0 8.79324 0.00744432 8.36603 0.0414755C6.82386 0.164573 5.86422 0.397739 4.81876 0.897572C4.01306 1.28175 3.37764 1.72708 2.75053 2.35134C1.60844 3.48979 0.91626 4.89039 0.665692 6.55526C0.543869 7.3635 0.508429 7.52834 0.501231 11.6567C0.498462 13.0329 0.501231 14.844 0.501231 17.2732C0.501231 24.4836 0.509537 26.5919 0.54553 27.0014C0.670122 28.4424 0.905462 29.349 1.40383 30.3407C2.35627 32.239 4.17531 33.664 6.31829 34.1958C7.06031 34.3792 7.87984 34.4802 8.93195 34.5281C9.37772 34.5467 13.9212 34.56 18.4674 34.56C23.0136 34.56 27.5598 34.5547 27.9945 34.5334C29.2128 34.4784 29.9202 34.3872 30.7023 34.1931C31.7649 33.9314 32.7552 33.4502 33.604 32.7829C34.4528 32.1157 35.1398 31.2786 35.6168 30.33C36.1055 29.3623 36.3533 28.4211 36.4654 27.0553C36.4898 26.7575 36.5 22.0099 36.5 17.2687C36.5 12.5267 36.4889 7.78782 36.4646 7.49005C36.351 6.10222 36.1032 5.16902 35.5988 4.18264C35.1849 3.3752 34.7253 2.77221 34.058 2.15566C32.8675 1.06347 31.4111 0.398803 29.6754 0.158458C28.8345 0.0417414 28.667 0.00717845 24.3645 0H18.5059Z" fill="url(#paint1_radial_61_1177)"/>
<path d="M18.4977 4.51953C14.8884 4.51953 14.4354 4.53469 13.0179 4.59663C11.6031 4.65885 10.6373 4.87393 9.79232 5.18952C8.91824 5.51548 8.17678 5.9515 7.43809 6.6611C6.69884 7.37044 6.24477 8.08244 5.90422 8.92152C5.57475 9.73321 5.35048 10.6608 5.2868 12.0189C5.22367 13.3801 5.20706 13.8154 5.20706 17.2812C5.20706 20.7471 5.22312 21.1807 5.28735 22.542C5.35242 23.9006 5.57641 24.8279 5.90478 25.6393C6.2445 26.4787 6.69857 27.1907 7.43753 27.9C8.17595 28.6099 8.91741 29.047 9.79094 29.3729C10.6365 29.6885 11.6025 29.9036 13.017 29.9658C14.4346 30.0278 14.8873 30.0429 18.4963 30.0429C22.1059 30.0429 22.5575 30.0278 23.975 29.9658C25.3898 29.9036 26.3567 29.6885 27.2022 29.3729C28.0761 29.047 28.8164 28.6099 29.5548 27.9C30.2941 27.1907 30.7481 26.4787 31.0887 25.6396C31.4154 24.8279 31.6397 23.9003 31.7061 22.5422C31.7698 21.181 31.7864 20.7471 31.7864 17.2812C31.7864 13.8154 31.7698 13.3804 31.7061 12.0192C31.6397 10.6606 31.4154 9.73321 31.0887 8.92178C30.7481 8.08244 30.2941 7.37044 29.5548 6.6611C28.8156 5.95123 28.0763 5.51521 27.2014 5.18952C26.3542 4.87393 25.3879 4.65885 23.9731 4.59663C22.5555 4.53469 22.1042 4.51953 18.4938 4.51953H18.4977ZM17.3055 6.81929C17.6593 6.81876 18.0542 6.81929 18.4977 6.81929C22.0461 6.81929 22.4666 6.83152 23.8679 6.89267C25.1636 6.94957 25.8669 7.15748 26.3354 7.33215C26.9556 7.56346 27.3977 7.83996 27.8626 8.28662C28.3277 8.73328 28.6157 9.15867 28.8571 9.75422C29.039 10.2035 29.2558 10.8788 29.3148 12.1231C29.3785 13.4684 29.3923 13.8725 29.3923 17.2783C29.3923 20.6841 29.3785 21.0882 29.3148 22.4335C29.2555 23.6778 29.039 24.3531 28.8571 24.8024C28.6162 25.3979 28.3277 25.822 27.8626 26.2684C27.3974 26.715 26.9558 26.9915 26.3354 27.2228C25.8674 27.3983 25.1636 27.6057 23.8679 27.6626C22.4669 27.7237 22.0461 27.737 18.4977 27.737C14.949 27.737 14.5285 27.7237 13.1275 27.6626C11.8318 27.6052 11.1285 27.3973 10.6598 27.2226C10.0396 26.9913 9.59657 26.7148 9.13143 26.2681C8.66629 25.8215 8.37834 25.3971 8.13691 24.8013C7.95501 24.352 7.73822 23.6767 7.67924 22.4324C7.61556 21.0871 7.60283 20.683 7.60283 17.2751C7.60283 13.8672 7.61556 13.4652 7.67924 12.1199C7.73849 10.8757 7.95501 10.2003 8.13691 9.75049C8.37779 9.15495 8.66629 8.72956 9.13143 8.2829C9.59657 7.83624 10.0396 7.55974 10.6598 7.3279C11.1282 7.15243 11.8318 6.94505 13.1275 6.88789C14.3535 6.83472 14.8286 6.81876 17.3055 6.8161V6.81929ZM25.5917 8.93827C25.2762 8.93827 24.9679 9.0281 24.7056 9.19639C24.4433 9.36469 24.2389 9.60389 24.1182 9.88375C23.9976 10.1636 23.966 10.4715 24.0276 10.7686C24.0892 11.0657 24.2411 11.3386 24.4642 11.5527C24.6873 11.7669 24.9715 11.9127 25.2809 11.9717C25.5903 12.0307 25.911 12.0003 26.2024 11.8843C26.4938 11.7684 26.7428 11.572 26.918 11.3201C27.0931 11.0682 27.1866 10.772 27.1865 10.4691C27.1865 9.62368 26.4721 8.93774 25.5917 8.93774V8.93827ZM18.4977 10.7276C14.7287 10.7276 11.6728 13.662 11.6728 17.2812C11.6728 20.9005 14.7287 23.8336 18.4977 23.8336C22.2667 23.8336 25.3217 20.9005 25.3217 17.2812C25.3217 13.662 22.2665 10.7276 18.4974 10.7276H18.4977ZM18.4977 13.0273C20.9441 13.0273 22.9276 14.9317 22.9276 17.2812C22.9276 19.6304 20.9441 21.5351 18.4977 21.5351C16.051 21.5351 14.0678 19.6304 14.0678 17.2812C14.0678 14.9317 16.051 13.0273 18.4977 13.0273Z" fill="white"/>
<defs>
<radialGradient id="paint0_radial_61_1177" cx="0" cy="0" r="1" gradientUnits="userSpaceOnUse" gradientTransform="translate(10.0625 37.2218) rotate(-90) scale(34.2515 33.184)">
<stop stop-color="#FFDD55"/>
<stop offset="0.1" stop-color="#FFDD55"/>
<stop offset="0.5" stop-color="#FF543E"/>
<stop offset="1" stop-color="#C837AB"/>
</radialGradient>
<radialGradient id="paint1_radial_61_1177" cx="0" cy="0" r="1" gradientUnits="userSpaceOnUse" gradientTransform="translate(-5.53019 2.48964) rotate(78.2219) scale(15.3356 65.633)">
<stop stop-color="#3771C8"/>
<stop offset="0.128" stop-color="#3771C8"/>
<stop offset="1" stop-color="#6600FF" stop-opacity="0"/>
</radialGradient>
</defs>
</svg>
