<svg width="37" height="36" viewBox="0 0 37 36" fill="none" xmlns="http://www.w3.org/2000/svg">
<g clip-path="url(#clip0_61_1181)">
<path d="M35.783 9.27641C35.5795 8.51053 35.1783 7.81154 34.6198 7.24939C34.0612 6.68724 33.3648 6.28166 32.6003 6.07322C29.7857 5.31641 18.5357 5.31641 18.5357 5.31641C18.5357 5.31641 7.28571 5.31641 4.47116 6.07322C3.7066 6.28166 3.01019 6.68724 2.45164 7.24939C1.89308 7.81154 1.49196 8.51053 1.28843 9.27641C0.535706 12.1032 0.535706 17.9982 0.535706 17.9982C0.535706 17.9982 0.535706 23.8932 1.28843 26.72C1.49196 27.4859 1.89308 28.1849 2.45164 28.7471C3.01019 29.3092 3.7066 29.7148 4.47116 29.9232C7.28571 30.68 18.5357 30.68 18.5357 30.68C18.5357 30.68 29.7857 30.68 32.6003 29.9232C33.3648 29.7148 34.0612 29.3092 34.6198 28.7471C35.1783 28.1849 35.5795 27.4859 35.783 26.72C36.5357 23.8932 36.5357 17.9982 36.5357 17.9982C36.5357 17.9982 36.5357 12.1032 35.783 9.27641Z" fill="#FF0302"/>
<path d="M14.8539 23.3543V12.6484L24.263 18.0014L14.8539 23.3543Z" fill="#FEFEFE"/>
</g>
<defs>
<clipPath id="clip0_61_1181">
<rect width="36" height="36" fill="white" transform="translate(0.5)"/>
</clipPath>
</defs>
</svg>
